{"title":"White.House.Down.2013.720p.TS.XviD-THC","uid":8656504,"size":2848049632,"categoryP":"video","categoryS":"hd___movies","magnet":"?xt=urn:btih:224cb40468495fd76737238ba13649f89b14652a&amp;dn=White.House.Down.2013.720p.TS.XviD-THC&amp;tr=udp%3A%2F%2Ftracker.openbittorrent.com%3A80&amp;tr=udp%3A%2F%2Fopen.demonii.com%3A1337&amp;tr=udp%3A%2F%2Ftracker.coppersurfer.tk%3A6969&amp;tr=udp%3A%2F%2Fexodus.desync.com%3A6969","seeders":3,"leechers":0,"uploader":"Thhaque","files":3,"time":1373228390,"description":"White.House.Down.2013.720p.TS.XviD-THC\n\nGenre: Action, Drama\nYear: 2013\nCountry: USA\nDirector: Roland Emmerich \nCasts: Channing Tatum, Joey King, Jason Clarke, Jamie Foxx, Maggie Gyllenhaal, James Woods, Rachelle Lefevre, Richard Jenkins, Jimmi Simpson, Lance Reddick, Jake Weber, Simon Northwood, Peter Jacobson, Garcelle Beauvais, Matt Craven\n\n\nSource: THC\nAudio: A Friend....THANKS\n &lt;a href=&quot;\nhttp://www.imdb.com/title/tt2334879/&quot; rel=&quot;nofollow&quot; target=&quot;_NEW&quot;&gt;\nhttp://www.imdb.com/title/tt2334879/&lt;/a&gt;\n\nFormat                           : AVI\nFormat/Info                      : Audio Video Interleave\nFormat profile                   : OpenDML\nFile size                        : 2.64 GiB\nDuration                         : 2h 5mn\nOverall bit rate                 : 3 011 Kbps\nWriting library                  : VirtualDub build 35390/release\n\nVideo\nID                               : 0\nFormat                           : MPEG-4 Visual\nFormat profile                   : Advanced Simple@L5\nFormat settings, BVOP            : Yes\nFormat settings, QPel            : No\nFormat settings, GMC             : No warppoints\nFormat settings, Matrix          : Default (H.263)\nMuxing mode                      : Packed bitstream\nCodec ID                         : XVID\nCodec ID/Hint                    : XviD\nDuration                         : 2h 5mn\nBit rate                         : 2 808 Kbps\nWidth                            : 1 280 pixels\nHeight                           : 544 pixels\nDisplay aspect ratio             : 2.35:1\nFrame rate                       : 24.000 fps\nColor space                      : YUV\nChroma subsampling               : 4:2:0\nBit depth                        : 8 bits\nScan type                        : Progressive\nBits/(Pixel*Frame)               : 0.168\nStream size                      : 2.46 GiB (93%)\nWriting library                  : XviD 1.2.1 (UTC 2008-12-04)\n\nAudio\nID                               : 1\nFormat                           : MPEG Audio\nFormat version                   : Version 1\nFormat profile                   : Layer 3\nMode                             : Joint stereo\nMode extension                   : MS Stereo\nCodec ID                         : 55\nCodec ID/Hint                    : MP3\nDuration                         : 2h 5mn\nBit rate mode                    : Constant\nBit rate                         : 192 Kbps\nChannel(s)                       : 2 channels\nSampling rate                    : 48.0 KHz\nStream size                      : 172 MiB (6%)\nAlignment                        : Split accross interleaves\nInterleave, duration             : 42 ms (1.00 video frame)\nInterleave, preload duration     : 500 ms\nWriting library                  : LAME3.98.2\n\nNote:\nSame as the other just 720p\n\n.: Plot :.\nWhile on a tour of the White House with his young daughter, a Capitol policeman springs into action to save his child and protect the president from a heavily armed group of paramilitary invaders.\n\nScreenshots: &lt;a href=&quot;\nhttp://s20.postimg.org/86u5u6kj1/3270132d4d895147.png&quot; rel=&quot;nofollow&quot; target=&quot;_NEW&quot;&gt;\nhttp://s20.postimg.org/86u5u6kj1/3270132d4d895147.png&lt;/a&gt; &lt;a href=&quot;\nhttp://s20.postimg.org/mejuitx7x/a821b9e47a445540.png&quot; rel=&quot;nofollow&quot; target=&quot;_NEW&quot;&gt;\nhttp://s20.postimg.org/mejuitx7x/a821b9e47a445540.png&lt;/a&gt;","torrent":{"xt":"urn:btih:224cb40468495fd76737238ba13649f89b14652a","amp;dn":"White.House.Down.2013.720p.TS.XviD-THC","amp;tr":["udp%3A%2F%2Ftracker.openbittorrent.com%3A80","udp%3A%2F%2Fopen.demonii.com%3A1337","udp%3A%2F%2Ftracker.coppersurfer.tk%3A6969","udp%3A%2F%2Fexodus.desync.com%3A6969"],"infoHash":"224cb40468495fd76737238ba13649f89b14652a","infoHashBuffer":{"type":"Buffer","data":[34,76,180,4,104,73,95,215,103,55,35,139,161,54,73,248,155,20,101,42]},"announce":[],"urlList":[]}}